<svg width="231" height="54" viewBox="0 0 231 54" fill="none" xmlns="http://www.w3.org/2000/svg">
<path d="M69.6907 26.0696V34H65.053V11.492H73.8336C75.5238 11.492 77.0078 11.8012 78.2857 12.4195C79.574 13.0379 80.5633 13.9191 81.2538 15.063C81.9443 16.1966 82.2896 17.49 82.2896 18.9432C82.2896 21.1486 81.5321 22.8903 80.0171 24.1682C78.5125 25.4358 76.4255 26.0696 73.7563 26.0696H69.6907ZM69.6907 22.3132H73.8336C75.06 22.3132 75.9927 22.0246 76.6317 21.4475C77.2809 20.8703 77.6056 20.0459 77.6056 18.9741C77.6056 17.8713 77.2809 16.9799 76.6317 16.2997C75.9824 15.6195 75.0858 15.2691 73.9418 15.2485H69.6907V22.3132ZM89.9107 34H85.4277V17.2736H89.9107V34ZM85.1649 12.9451C85.1649 12.2753 85.3865 11.7239 85.8296 11.2911C86.2831 10.8582 86.8963 10.6418 87.6692 10.6418C88.4319 10.6418 89.0399 10.8582 89.4934 11.2911C89.9468 11.7239 90.1735 12.2753 90.1735 12.9451C90.1735 13.6253 89.9417 14.1818 89.4779 14.6147C89.0244 15.0475 88.4215 15.264 87.6692 15.264C86.9169 15.264 86.3088 15.0475 85.8451 14.6147C85.3916 14.1818 85.1649 13.6253 85.1649 12.9451ZM98.7377 30.3981H106.915V34H93.0334V31.2793L100.902 20.891H93.2653V17.2736H106.668V19.9171L98.7377 30.3981ZM114.846 30.3981H123.023V34H109.141V31.2793L117.01 20.891H109.373V17.2736H122.776V19.9171L114.846 30.3981ZM135.514 34C135.308 33.5981 135.159 33.0982 135.066 32.5005C133.984 33.7063 132.577 34.3092 130.846 34.3092C129.207 34.3092 127.847 33.8351 126.764 32.887C125.693 31.9388 125.157 30.7434 125.157 29.3005C125.157 27.5279 125.811 26.1676 127.12 25.2194C128.439 24.2713 130.341 23.7921 132.824 23.7817H134.88V22.8233C134.88 22.0504 134.679 21.432 134.277 20.9683C133.886 20.5045 133.262 20.2726 132.407 20.2726C131.655 20.2726 131.062 20.453 130.629 20.8137C130.207 21.1744 129.995 21.669 129.995 22.2977H125.528C125.528 21.329 125.827 20.4323 126.424 19.6079C127.022 18.7834 127.867 18.1393 128.96 17.6755C130.052 17.2015 131.278 16.9644 132.639 16.9644C134.7 16.9644 136.333 17.4849 137.539 18.5258C138.755 19.5564 139.363 21.0095 139.363 22.8851V30.1353C139.374 31.7224 139.595 32.923 140.028 33.7372V34H135.514ZM131.819 30.8928C132.479 30.8928 133.087 30.7485 133.644 30.4599C134.2 30.1611 134.612 29.7643 134.88 29.2696V26.3943H133.211C130.974 26.3943 129.784 27.1672 129.64 28.7131L129.624 28.9759C129.624 29.5324 129.82 29.991 130.212 30.3517C130.603 30.7124 131.139 30.8928 131.819 30.8928ZM160.619 27.5073L163.649 11.492H168.271L163.278 34H158.61L154.946 18.9432L151.282 34H146.614L141.62 11.492H146.243L149.288 27.4764L152.998 11.492H156.925L160.619 27.5073ZM169.307 25.4822C169.307 23.823 169.626 22.3441 170.265 21.0455C170.904 19.747 171.822 18.7422 173.017 18.0311C174.223 17.32 175.619 16.9644 177.206 16.9644C179.463 16.9644 181.303 17.6549 182.725 19.0359C184.158 20.4169 184.956 22.2926 185.121 24.6629L185.152 25.8068C185.152 28.373 184.436 30.4342 183.003 31.9904C181.571 33.5362 179.649 34.3092 177.237 34.3092C174.826 34.3092 172.899 33.5362 171.456 31.9904C170.023 30.4445 169.307 28.3421 169.307 25.6832V25.4822ZM173.775 25.8068C173.775 27.3939 174.073 28.61 174.671 29.4551C175.269 30.2899 176.124 30.7073 177.237 30.7073C178.319 30.7073 179.165 30.295 179.773 29.4706C180.381 28.6358 180.685 27.3064 180.685 25.4822C180.685 23.926 180.381 22.7202 179.773 21.8649C179.165 21.0095 178.309 20.5818 177.206 20.5818C176.114 20.5818 175.269 21.0095 174.671 21.8649C174.073 22.7099 173.775 24.0239 173.775 25.8068ZM197.303 21.4629C196.695 21.3805 196.159 21.3393 195.695 21.3393C194.005 21.3393 192.897 21.9112 192.372 23.0552V34H187.904V17.2736H192.124L192.248 19.2678C193.144 17.7322 194.386 16.9644 195.973 16.9644C196.468 16.9644 196.932 17.0314 197.365 17.1654L197.303 21.4629ZM205.542 27.2909L203.935 28.8986V34H199.467V10.2553H203.935V23.4107L204.8 22.2977L209.082 17.2736H214.447L208.402 24.2455L214.972 34H209.84L205.542 27.2909ZM225.438 29.3778C225.438 28.8316 225.165 28.4039 224.619 28.0947C224.083 27.7753 223.217 27.4919 222.021 27.2445C218.043 26.4097 216.054 24.7196 216.054 22.174C216.054 20.69 216.668 19.4533 217.894 18.4639C219.131 17.4643 220.744 16.9644 222.733 16.9644C224.856 16.9644 226.551 17.4643 227.818 18.4639C229.096 19.4636 229.735 20.7621 229.735 22.3595H225.268C225.268 21.7206 225.062 21.195 224.649 20.7827C224.237 20.3602 223.593 20.1489 222.717 20.1489C221.965 20.1489 221.382 20.319 220.97 20.6591C220.558 20.9992 220.352 21.432 220.352 21.9576C220.352 22.4523 220.584 22.8542 221.048 23.1634C221.522 23.4623 222.315 23.7251 223.428 23.9518C224.541 24.1682 225.479 24.4156 226.242 24.6938C228.602 25.5595 229.782 27.059 229.782 29.1923C229.782 30.7176 229.127 31.9543 227.818 32.9024C226.51 33.8403 224.819 34.3092 222.748 34.3092C221.346 34.3092 220.099 34.0618 219.007 33.5672C217.925 33.0622 217.075 32.3768 216.456 31.5111C215.838 30.6351 215.529 29.6922 215.529 28.6822H219.764C219.806 29.4757 220.099 30.0838 220.646 30.5063C221.192 30.9289 221.924 31.1401 222.841 31.1401C223.696 31.1401 224.34 30.9804 224.773 30.6609C225.216 30.3311 225.438 29.9034 225.438 29.3778Z" fill="white"/>
<path d="M20.25 24.7275C20.8468 24.7275 21.4191 24.4904 21.841 24.0685C22.263 23.6465 22.5 23.0742 22.5 22.4775C22.5 21.8808 22.263 21.3085 21.841 20.8865C21.4191 20.4645 20.8468 20.2275 20.25 20.2275C19.6533 20.2275 19.081 20.4645 18.659 20.8865C18.2371 21.3085 18 21.8808 18 22.4775C18 23.0742 18.2371 23.6465 18.659 24.0685C19.081 24.4904 19.6533 24.7275 20.25 24.7275ZM31.5 29.223C31.5 29.8197 31.263 30.392 30.841 30.814C30.4191 31.2359 29.8468 31.473 29.25 31.473C28.6533 31.473 28.081 31.2359 27.659 30.814C27.2371 30.392 27 29.8197 27 29.223C27 28.6263 27.2371 28.054 27.659 27.632C28.081 27.21 28.6533 26.973 29.25 26.973C29.8468 26.973 30.4191 27.21 30.841 27.632C31.263 28.054 31.5 28.6263 31.5 29.223ZM20.25 38.2185C20.8468 38.2185 21.4191 37.9814 21.841 37.5595C22.263 37.1375 22.5 36.5652 22.5 35.9685C22.5 35.3718 22.263 34.7995 21.841 34.3775C21.4191 33.9555 20.8468 33.7185 20.25 33.7185C19.6533 33.7185 19.081 33.9555 18.659 34.3775C18.2371 34.7995 18 35.3718 18 35.9685C18 36.5652 18.2371 37.1375 18.659 37.5595C19.081 37.9814 19.6533 38.2185 20.25 38.2185ZM11.25 10.485C11.25 7.11674 14.0175 4.17374 17.595 4.52699C29.2442 5.6816 40.0365 11.1637 47.8395 19.89C50.247 22.5742 49.4978 26.559 46.7618 28.5412C43.2023 31.1242 37.8968 34.9695 34.875 37.1655C34.8705 38.1487 34.8705 38.7877 34.8728 39.6225V41.0355C34.8731 41.611 34.7472 42.1797 34.504 42.7013C34.2609 43.223 33.9063 43.685 33.4652 44.0548C33.0242 44.4246 32.5075 44.6933 31.9514 44.8418C31.3953 44.9903 30.8135 45.0151 30.2468 44.9145C29.7878 46.773 28.1498 48.3502 25.8728 48.3502C24.2978 48.3502 23.0333 47.5965 22.2525 46.5165L19.2713 48.6697C15.9233 51.0862 11.2388 48.6945 11.241 44.5612L11.25 10.4872V10.485ZM17.2643 7.88624C15.894 7.75124 14.6228 8.88299 14.6228 10.485V11.655C26.4443 12.1522 36.9225 17.8402 43.839 26.4915L44.7818 25.8075C46.0823 24.8625 46.2488 23.1682 45.3263 22.14C38.0859 14.0444 28.0724 8.95896 17.2643 7.88849V7.88624ZM14.616 44.5612C14.616 45.9382 16.1775 46.737 17.2935 45.9292L22.0815 42.4777C22.3338 42.2962 22.6313 42.1879 22.9412 42.1648C23.2511 42.1416 23.5614 42.2044 23.8378 42.3464C24.1143 42.4883 24.3462 42.7039 24.5079 42.9692C24.6697 43.2346 24.755 43.5395 24.7545 43.8502C24.7545 44.4577 25.2248 44.9752 25.8728 44.9752C26.0211 44.9767 26.1683 44.9487 26.3057 44.8927C26.4432 44.8368 26.5681 44.754 26.6732 44.6493C26.7783 44.5446 26.8616 44.4201 26.9181 44.2829C26.9746 44.1457 27.0032 43.9986 27.0023 43.8502V41.0332C27.0023 40.5857 27.1801 40.1565 27.4965 39.84C27.813 39.5235 28.2422 39.3457 28.6898 39.3457C29.1373 39.3457 29.5666 39.5235 29.883 39.84C30.1995 40.1565 30.3773 40.5857 30.3773 41.0332C30.3773 41.3482 30.627 41.5957 30.9353 41.5957C31.0845 41.5957 31.2275 41.5365 31.333 41.431C31.4385 41.3255 31.4978 41.1824 31.4978 41.0332V39.6337C31.4955 38.5762 31.4933 37.8157 31.509 36.2835C31.5111 36.02 31.5749 35.7606 31.6952 35.5262C31.8156 35.2918 31.9891 35.0888 32.202 34.9335C34.2315 33.4575 37.818 30.8565 41.103 28.476C37.895 24.4851 33.8744 21.2225 29.3085 18.905C24.7425 16.5875 19.7356 15.2681 14.6205 15.0345L14.616 44.5612Z" fill="white"/>
<rect x="63" y="44" width="168" height="3" rx="1.5" fill="white"/>
</svg>
