<svg width="721" height="1116" viewBox="0 0 721 1116" fill="none" xmlns="http://www.w3.org/2000/svg">
<g clip-path="url(#clip0)">
<path d="M462.965 488.818C472.348 491.765 482.518 490.863 491.237 486.312C499.955 481.76 506.509 473.932 509.455 464.549C512.402 455.165 511.501 444.996 506.949 436.277C502.398 427.559 494.569 421.005 485.186 418.058C475.803 415.112 465.633 416.013 456.915 420.565C448.196 425.116 441.642 432.944 438.696 442.328C435.749 451.711 436.651 461.881 441.202 470.599C445.753 479.318 453.582 485.871 462.965 488.818V488.818ZM617.666 615.059C614.719 624.443 608.165 632.271 599.447 636.822C590.728 641.374 580.559 642.275 571.175 639.329C561.792 636.382 553.964 629.828 549.412 621.11C544.861 612.391 543.959 602.222 546.906 592.838C549.853 583.455 556.406 575.627 565.125 571.075C573.843 566.524 584.013 565.622 593.396 568.569C602.78 571.516 610.608 578.069 615.159 586.788C619.711 595.506 620.612 605.676 617.666 615.059V615.059ZM396.347 700.955C405.73 703.902 415.9 703.001 424.618 698.449C433.337 693.898 439.89 686.069 442.837 676.686C445.784 667.303 444.882 657.133 440.331 648.415C435.78 639.696 427.951 633.142 418.568 630.196C409.184 627.249 399.015 628.151 390.296 632.702C381.578 637.253 375.024 645.082 372.077 654.465C369.131 663.848 370.032 674.018 374.584 682.737C379.135 691.455 386.964 698.009 396.347 700.955V700.955ZM391.775 220.422C408.407 167.458 466.457 134.847 520.967 158.068C698.441 233.747 841.073 373.241 920.68 548.988C945.282 603.084 913.824 662.042 861.013 679.701C792.288 702.741 689.874 737.006 631.515 756.616C626.589 772.054 623.434 782.102 619.347 795.239L612.37 817.458C609.533 826.51 604.746 834.829 598.346 841.831C591.946 848.833 584.089 854.347 575.328 857.984C566.567 861.621 557.115 863.294 547.638 862.884C538.161 862.473 528.889 859.99 520.475 855.609C504.08 882.567 470.535 899.28 434.731 888.036C409.965 880.258 393.803 862.162 386.86 841.324L329.349 860.462C264.771 881.927 202.92 821.186 223.366 756.205L391.764 220.457L391.775 220.422ZM499.178 209.257C478.298 200.367 452.72 211.886 444.809 237.077L439.032 255.474C622.462 321.667 759.139 462.849 825.177 633.038L843.378 626.938C868.494 618.5 879.479 592.681 870.05 571.957C796.176 408.907 663.832 279.495 499.167 209.292L499.178 209.257ZM276.435 772.87C269.636 794.523 290.245 814.793 311.782 807.603L404.114 776.973C408.977 775.365 414.189 775.131 419.177 776.297C424.164 777.463 428.733 779.983 432.379 783.581C436.025 787.178 438.607 791.712 439.841 796.683C441.074 801.655 440.91 806.87 439.368 811.754C436.368 821.307 441.207 831.766 451.396 834.966C453.722 835.722 456.175 836.008 458.612 835.807C461.049 835.605 463.422 834.921 465.592 833.794C467.762 832.667 469.686 831.119 471.251 829.24C472.817 827.362 473.994 825.191 474.712 822.854L488.623 778.558C490.833 771.521 495.748 765.649 502.287 762.236C508.826 758.822 516.453 758.146 523.49 760.356C530.528 762.566 536.399 767.481 539.813 774.02C543.226 780.559 543.902 788.186 541.692 795.224C540.137 800.177 542.842 805.302 547.689 806.824C550.035 807.561 552.577 807.335 554.757 806.197C556.936 805.06 558.575 803.103 559.311 800.757L566.222 778.75C571.409 762.111 575.129 750.141 582.942 726.125C584.276 721.992 586.56 718.229 589.61 715.137C592.66 712.045 596.391 709.71 600.506 708.32C639.707 695.132 708.946 671.943 772.355 650.733C741.618 572.137 694.508 500.981 634.155 441.993C573.802 383.005 501.587 337.535 422.309 308.603L276.435 772.87V772.87Z" fill="#5A7D57"/>
</g>
<defs>
<clipPath id="clip0">
<rect width="890" height="890" fill="white" transform="translate(266.651) rotate(17.4341)"/>
</clipPath>
</defs>
</svg>
